<svg width="210" height="48" viewBox="0 0 210 48" fill="none" xmlns="http://www.w3.org/2000/svg">
<path d="M25.9439 7.42561C23.6777 11.7905 21.5044 15.999 19.294 20.2074C19.0339 20.7117 19.2568 20.903 19.6283 21.1986C23.5291 24.3984 24.8851 28.4851 24.4765 33.2152C24.4765 33.2674 24.4207 33.3196 24.365 33.4239C24.1607 33.4413 23.9192 33.4587 23.6963 33.4587C20.2227 33.4587 16.7678 33.4761 13.2942 33.4413C12.6626 33.4413 12.3654 33.6326 12.1054 34.1369C9.93208 38.3801 7.72164 42.6059 5.54834 46.8665C5.26971 47.423 4.93536 47.6317 4.28523 47.5969C3.15214 47.5447 2.00048 47.5795 0.681641 47.5795C1.35035 46.31 1.96333 45.1275 2.59489 43.945C4.78676 39.8235 6.97863 35.7194 9.15193 31.5979C9.43055 31.0589 9.74633 30.8502 10.415 30.8502C14.6316 30.885 18.8296 30.8676 23.0462 30.8676C23.3805 30.8676 23.7149 30.8676 24.1607 30.8676C23.7334 25.4244 20.9472 21.6334 15.709 19.3205C19.1082 12.9383 22.4889 6.59088 25.981 0C34.4699 15.9468 42.8473 31.7197 51.3176 47.5969C49.8502 47.5969 48.5685 47.6317 47.2682 47.5795C47.0082 47.5621 46.6552 47.3187 46.5438 47.0752C42.3458 38.9888 38.1478 30.9023 33.9684 22.8159C31.4422 17.9293 28.8973 13.0426 26.3711 8.1386C26.2597 7.94731 26.1296 7.75602 25.9439 7.42561Z" fill="#0060FE"/>
<path d="M65.4646 17.3748H68.4108L73.4827 30.7073H70.3501L69.3991 27.7611H64.4577L63.5067 30.7073H60.4299L65.4646 17.3748ZM68.7091 25.5235L66.9563 20.0226H66.919L65.1662 25.5235H68.7091ZM74.626 17.3748H80.7608C82.1407 17.3748 83.2284 17.7229 84.024 18.419C84.8196 19.1152 85.2174 20.1469 85.2174 21.5144C85.2174 22.4343 85.0372 23.205 84.6767 23.8266C84.3162 24.4357 83.8003 24.8957 83.129 25.2065C82.4577 25.5172 81.6683 25.6726 80.7608 25.6726H77.4976V30.7073H74.626V17.3748ZM80.2387 23.2858C80.6738 23.2858 81.0405 23.2237 81.3389 23.0994C81.6372 22.975 81.8672 22.7886 82.0288 22.54C82.1904 22.2789 82.2712 21.937 82.2712 21.5144C82.2712 20.9052 82.0972 20.4639 81.7491 20.1905C81.4135 19.9045 80.91 19.7616 80.2387 19.7616H77.4976V23.2858H80.2387ZM89.6315 19.7616H85.5851V17.3748H96.5308V19.7616H92.5031V30.7073H89.6315V19.7616ZM98.0074 17.3748H107.872V19.7616H100.879V22.6518H106.939V25.0386H100.879V28.3205H108.002V30.7073H98.0074V17.3748ZM110.423 30.987C110.075 30.987 109.733 30.9683 109.397 30.931C109.074 30.8937 108.844 30.8378 108.707 30.7632V28.3018C109.055 28.4261 109.428 28.4883 109.826 28.4883C110.224 28.4883 110.522 28.364 110.721 28.1154C110.92 27.8543 111.032 27.4192 111.057 26.8101L111.579 17.3748H120.417V30.7073H117.546V19.7616H114.133L113.723 27.0525C113.649 28.4821 113.319 29.4952 112.735 30.0919C112.163 30.6886 111.392 30.987 110.423 30.987ZM122.809 17.3748H125.681V21.7568H128.403C129.36 21.7568 130.193 21.937 130.902 22.2975C131.61 22.6581 132.157 23.1677 132.543 23.8266C132.928 24.4854 133.121 25.2686 133.121 26.1761C133.121 27.1084 132.922 27.9165 132.524 28.6002C132.126 29.2715 131.561 29.7936 130.827 30.1665C130.094 30.527 129.224 30.7073 128.217 30.7073H122.809V17.3748ZM128.179 28.3205C128.59 28.3205 128.944 28.2397 129.242 28.0781C129.541 27.904 129.771 27.6554 129.932 27.3322C130.094 27.009 130.175 26.6236 130.175 26.1761C130.175 25.567 130.007 25.0759 129.671 24.703C129.348 24.3301 128.907 24.1436 128.347 24.1436H125.681V28.3205H128.179ZM138.037 17.3748H148.144V30.7073H146.465V18.8665H139.715V30.7073H138.037V17.3748ZM150.911 17.3748H156.207C157.512 17.3748 158.557 17.6918 159.34 18.3258C160.135 18.9473 160.533 19.9232 160.533 21.2533C160.533 22.5835 160.135 23.5655 159.34 24.1995C158.557 24.8211 157.512 25.1319 156.207 25.1319H152.59V30.7073H150.911V17.3748ZM156.319 23.6401C157.152 23.6401 157.767 23.4474 158.165 23.0621C158.575 22.6643 158.78 22.0614 158.78 21.2533C158.78 20.4453 158.575 19.8486 158.165 19.4632C157.767 19.0654 157.152 18.8665 156.319 18.8665H152.59V23.6401H156.319ZM168.093 30.9683C166.812 30.9683 165.675 30.67 164.681 30.0733C163.698 29.4766 162.934 28.6561 162.387 27.6119C161.84 26.5552 161.567 25.3618 161.567 24.0317C161.567 22.7016 161.84 21.5144 162.387 20.4702C162.934 19.4135 163.698 18.593 164.681 18.0088C165.675 17.4121 166.812 17.1137 168.093 17.1137C169.373 17.1137 170.505 17.4121 171.487 18.0088C172.481 18.593 173.252 19.4135 173.799 20.4702C174.346 21.5144 174.619 22.7016 174.619 24.0317C174.619 25.3618 174.346 26.5552 173.799 27.6119C173.252 28.6561 172.481 29.4766 171.487 30.0733C170.505 30.67 169.373 30.9683 168.093 30.9683ZM163.319 24.0317C163.319 25.0386 163.487 25.9523 163.823 26.7728C164.171 27.5933 164.699 28.2521 165.408 28.7494C166.129 29.2342 167.024 29.4766 168.093 29.4766C169.162 29.4766 170.051 29.2342 170.759 28.7494C171.48 28.2521 172.009 27.5933 172.344 26.7728C172.692 25.9523 172.867 25.0386 172.867 24.0317C172.867 23.0372 172.692 22.1297 172.344 21.3093C172.009 20.4888 171.48 19.8362 170.759 19.3513C170.051 18.8541 169.162 18.6055 168.093 18.6055C167.024 18.6055 166.129 18.8541 165.408 19.3513C164.699 19.8362 164.171 20.4888 163.823 21.3093C163.487 22.1297 163.319 23.0372 163.319 24.0317ZM176.715 17.3748H185.945V18.8665H178.393V23.0621H185.05V24.5538H178.393V29.2155H186.169V30.7073H176.715V17.3748ZM191.507 24.9454H189.81V30.7073H188.132V17.3748H189.81V23.4537H191.545L196.467 17.3748H198.295L192.85 24.1063L198.686 30.7073H196.579L191.507 24.9454ZM203.142 18.8665H198.704V17.3748H209.259V18.8665H204.821V30.7073H203.142V18.8665Z" fill="#0060FE"/>
<path d="M104.099 14.4005H101.955L104.099 11.2927H106.617L104.099 14.4005Z" fill="#0060FE"/>
</svg>
