<svg width="52" height="48" viewBox="0 0 52 48" fill="none" xmlns="http://www.w3.org/2000/svg">
<path d="M25.9439 7.42561C23.6777 11.7905 21.5044 15.999 19.294 20.2074C19.0339 20.7117 19.2568 20.903 19.6283 21.1986C23.5291 24.3984 24.8851 28.4851 24.4765 33.2152C24.4765 33.2674 24.4207 33.3196 24.365 33.4239C24.1607 33.4413 23.9192 33.4587 23.6963 33.4587C20.2227 33.4587 16.7678 33.4761 13.2942 33.4413C12.6626 33.4413 12.3654 33.6326 12.1054 34.1369C9.93208 38.3801 7.72164 42.6059 5.54834 46.8665C5.26971 47.423 4.93536 47.6317 4.28523 47.5969C3.15214 47.5447 2.00048 47.5795 0.681641 47.5795C1.35035 46.31 1.96333 45.1275 2.59489 43.945C4.78676 39.8235 6.97863 35.7194 9.15193 31.5979C9.43055 31.0589 9.74633 30.8502 10.415 30.8502C14.6316 30.885 18.8296 30.8676 23.0462 30.8676C23.3805 30.8676 23.7149 30.8676 24.1607 30.8676C23.7334 25.4244 20.9472 21.6334 15.709 19.3205C19.1082 12.9383 22.4889 6.59088 25.981 0C34.4699 15.9468 42.8473 31.7197 51.3176 47.5969C49.8502 47.5969 48.5685 47.6317 47.2682 47.5795C47.0082 47.5621 46.6552 47.3187 46.5438 47.0752C42.3458 38.9888 38.1478 30.9023 33.9684 22.8159C31.4422 17.9293 28.8973 13.0426 26.3711 8.1386C26.2597 7.94731 26.1296 7.75602 25.9439 7.42561Z" fill="#0060FE"/>
</svg>
