<svg width="45" height="14" viewBox="0 0 45 14" fill="none" xmlns="http://www.w3.org/2000/svg">
<path fill-rule="evenodd" clip-rule="evenodd" d="M4.94382 0.735514C5.33691 0.733006 6.50515 0.620773 7 2.40222C7.33333 3.60222 7.86431 5.56787 8.59294 8.29918H8.88968C9.67107 5.41964 10.2078 3.45399 10.5 2.40222C11 0.602216 12.25 0.73555 12.75 0.73555L16.6076 0.735555V13.5355H12.6758V5.99229H12.4122L10.2204 13.5355H7.26222L5.07045 5.9867H4.80679V13.5355H0.875V0.735555L4.94382 0.735514ZM22.2536 0.735555V8.28441H22.5672L25.2333 2.07704C25.7509 0.841756 26.8539 0.735555 26.8539 0.735555H30.6587V13.5355H26.6448V5.9867H26.3312L23.7173 12.1941C23.1998 13.4238 22.0445 13.5355 22.0445 13.5355H18.2397V0.735555H22.2536ZM44.5326 6.8182C43.9727 8.51059 42.2144 9.72263 40.2677 9.72263H36.0583V13.5355H32.2413V6.8182H44.5326Z" fill="#0F754E"/>
<path fill-rule="evenodd" clip-rule="evenodd" d="M40.4516 0.735558H32.041C32.2412 3.58527 34.5419 6.02481 36.9236 6.02481H44.7976C45.252 3.65636 43.6878 0.735558 40.4516 0.735558Z" fill="url(#paint0_linear_419_104)"/>
<defs>
<linearGradient id="paint0_linear_419_104" x1="1315.42" y1="333.452" x2="32.041" y2="333.452" gradientUnits="userSpaceOnUse">
<stop stop-color="#1F5CD7"/>
<stop offset="1" stop-color="#02AEFF"/>
</linearGradient>
</defs>
</svg>
