<svg width="26" height="29" viewBox="0 0 26 29" fill="none" xmlns="http://www.w3.org/2000/svg">
<path fill-rule="evenodd" clip-rule="evenodd" d="M19.2345 1.504C15.0396 0.566294 10.6894 0.566294 6.49451 1.504L6.04251 1.604C4.86253 1.86781 3.77879 2.45358 2.91167 3.29622C2.04455 4.13886 1.428 5.20539 1.13051 6.37733C0.0671735 10.5674 0.0671735 14.9566 1.13051 19.1467C1.41421 20.2643 1.98838 21.2872 2.79482 22.1114C3.60126 22.9356 4.61129 23.532 5.72251 23.84L6.34251 27.5413C6.3623 27.6589 6.41324 27.7689 6.49002 27.8601C6.5668 27.9513 6.66662 28.0202 6.77908 28.0597C6.89154 28.0991 7.01252 28.1077 7.12944 28.0846C7.24635 28.0614 7.35492 28.0074 7.44384 27.928L11.0852 24.6707C13.8186 24.8375 16.562 24.6189 19.2345 24.0213L19.6878 23.9213C20.8678 23.6575 21.9516 23.0718 22.8187 22.2291C23.6858 21.3865 24.3024 20.3199 24.5998 19.148C25.6631 14.958 25.6631 10.5687 24.5998 6.37867C24.3023 5.20656 23.6855 4.13991 22.8181 3.29725C21.9508 2.45459 20.8667 1.86893 19.6865 1.60533L19.2345 1.504ZM7.61984 6.26933C7.37204 6.23326 7.11936 6.28314 6.90384 6.41067H6.88518C6.38518 6.704 5.93451 7.07333 5.55051 7.508C5.23051 7.87733 5.05718 8.25067 5.01184 8.61067C4.98518 8.824 5.00384 9.04 5.06651 9.244L5.09051 9.25733C5.45051 10.3147 5.91984 11.332 6.49318 12.2893C7.23245 13.634 8.14218 14.8776 9.19984 15.9893L9.23184 16.0347L9.28251 16.072L9.31318 16.108L9.35051 16.14C10.4661 17.2008 11.7127 18.1149 13.0598 18.86C14.5998 19.6987 15.5345 20.0947 16.0958 20.26V20.268C16.2598 20.3187 16.4092 20.3413 16.5598 20.3413C17.0379 20.306 17.4904 20.1117 17.8452 19.7893C18.2785 19.4053 18.6452 18.9533 18.9305 18.4507V18.4413C19.1985 17.9347 19.1078 17.4573 18.7212 17.1333C17.9445 16.4547 17.1047 15.852 16.2132 15.3333C15.6158 15.0093 15.0092 15.2053 14.7638 15.5333L14.2398 16.1947C13.9705 16.5227 13.4825 16.4773 13.4825 16.4773L13.4692 16.4853C9.82784 15.556 8.85584 11.8693 8.85584 11.8693C8.85584 11.8693 8.81051 11.368 9.14784 11.112L9.80384 10.584C10.1185 10.328 10.3372 9.72267 9.99984 9.12533C9.48465 8.23302 8.8831 7.39343 8.20384 6.61867C8.0557 6.43633 7.84793 6.31214 7.61718 6.268L7.61984 6.26933ZM13.7718 4.66667C13.595 4.66667 13.4255 4.7369 13.3004 4.86193C13.1754 4.98695 13.1052 5.15652 13.1052 5.33333C13.1052 5.51014 13.1754 5.67971 13.3004 5.80474C13.4255 5.92976 13.595 6 13.7718 6C15.4585 6 16.8585 6.55067 17.9665 7.60667C18.5358 8.184 18.9798 8.868 19.2705 9.61733C19.5625 10.368 19.6958 11.1693 19.6612 11.972C19.6575 12.0595 19.6711 12.147 19.7012 12.2293C19.7313 12.3115 19.7773 12.3871 19.8366 12.4516C19.9564 12.5819 20.123 12.6592 20.2998 12.6667C20.4767 12.6741 20.6492 12.611 20.7794 12.4912C20.9097 12.3714 20.9871 12.2048 20.9945 12.028C21.0359 11.0406 20.872 10.0554 20.5132 9.13467C20.1528 8.20951 19.6064 7.36816 18.9078 6.66267L18.8945 6.64933C17.5198 5.336 15.7798 4.66667 13.7718 4.66667ZM13.7265 6.85867C13.5497 6.85867 13.3801 6.9289 13.2551 7.05393C13.1301 7.17895 13.0598 7.34852 13.0598 7.52533C13.0598 7.70214 13.1301 7.87171 13.2551 7.99674C13.3801 8.12176 13.5497 8.192 13.7265 8.192H13.7492C14.9652 8.27867 15.8505 8.684 16.4705 9.34933C17.1065 10.0347 17.4358 10.8867 17.4105 11.94C17.4064 12.1168 17.4728 12.288 17.5949 12.4159C17.7171 12.5438 17.885 12.6179 18.0618 12.622C18.2387 12.6261 18.4098 12.5597 18.5377 12.4376C18.6656 12.3154 18.7398 12.1475 18.7438 11.9707C18.7758 10.588 18.3305 9.39467 17.4478 8.44267V8.44C16.5452 7.472 15.3065 6.96 13.8158 6.86L13.7932 6.85733L13.7265 6.85867ZM13.7012 9.092C13.612 9.08413 13.5221 9.09431 13.4369 9.12195C13.3517 9.14959 13.2729 9.19411 13.2053 9.25285C13.1377 9.3116 13.0826 9.38336 13.0434 9.46386C13.0041 9.54436 12.9815 9.63195 12.9768 9.7214C12.9722 9.81084 12.9856 9.90031 13.0162 9.98445C13.0469 10.0686 13.0942 10.1457 13.1554 10.2112C13.2165 10.2766 13.2902 10.3291 13.3721 10.3654C13.4539 10.4018 13.5423 10.4212 13.6318 10.4227C14.1892 10.452 14.5452 10.62 14.7692 10.8453C14.9945 11.072 15.1625 11.436 15.1932 12.0053C15.1948 12.0948 15.2145 12.183 15.251 12.2647C15.2875 12.3464 15.34 12.42 15.4055 12.4809C15.471 12.5419 15.5481 12.589 15.6322 12.6196C15.7163 12.6501 15.8057 12.6634 15.8951 12.6587C15.9844 12.6539 16.0719 12.6312 16.1523 12.592C16.2327 12.5527 16.3044 12.4976 16.3631 12.4301C16.4217 12.3625 16.4662 12.2838 16.4938 12.1987C16.5215 12.1136 16.5317 12.0238 16.5238 11.9347C16.4812 11.1347 16.2305 10.428 15.7172 9.908C15.2012 9.388 14.4985 9.13467 13.7012 9.092Z" fill="#0060FE"/>
</svg>
