<svg width="28" height="28" viewBox="0 0 28 28" fill="none" xmlns="http://www.w3.org/2000/svg">
<path d="M14.0013 0.666666C21.3653 0.666666 27.3347 6.636 27.3347 14C27.3347 21.364 21.3653 27.3333 14.0013 27.3333C11.645 27.3371 9.3302 26.7136 7.29465 25.5267L0.673321 27.3333L2.47599 20.7093C1.28811 18.6732 0.664051 16.3573 0.667987 14C0.667987 6.636 6.63732 0.666666 14.0013 0.666666ZM9.45732 7.73333L9.19065 7.744C9.01802 7.75451 8.84929 7.79987 8.69465 7.87733C8.55002 7.95924 8.41798 8.06163 8.30265 8.18133C8.14265 8.332 8.05199 8.46267 7.95465 8.58933C7.46148 9.23054 7.19595 10.0178 7.19999 10.8267C7.20265 11.48 7.37332 12.116 7.63999 12.7107C8.18532 13.9133 9.08265 15.1867 10.2667 16.3667C10.552 16.6507 10.832 16.936 11.1333 17.2013C12.6045 18.4966 14.3577 19.4307 16.2533 19.9293L17.0107 20.0453C17.2573 20.0587 17.504 20.04 17.752 20.028C18.1403 20.008 18.5195 19.9028 18.8627 19.72C19.0373 19.6301 19.2077 19.5322 19.3733 19.4267C19.3733 19.4267 19.4307 19.3893 19.54 19.3067C19.72 19.1733 19.8307 19.0787 19.98 18.9227C20.0907 18.808 20.1867 18.6733 20.26 18.52C20.364 18.3027 20.468 17.888 20.5107 17.5427C20.5427 17.2787 20.5333 17.1347 20.5293 17.0453C20.524 16.9027 20.4053 16.7547 20.276 16.692L19.5 16.344C19.5 16.344 18.34 15.8387 17.6307 15.516C17.5564 15.4836 17.4769 15.4651 17.396 15.4613C17.3048 15.452 17.2126 15.4622 17.1257 15.4914C17.0387 15.5206 16.9591 15.5681 16.892 15.6307C16.8853 15.628 16.796 15.704 15.832 16.872C15.7767 16.9463 15.7004 17.0025 15.6131 17.0334C15.5257 17.0643 15.4311 17.0684 15.3413 17.0453C15.2545 17.022 15.1694 16.9926 15.0867 16.9573C14.9213 16.888 14.864 16.8613 14.7507 16.8133C13.9854 16.4794 13.2769 16.0282 12.6507 15.476C12.4827 15.3293 12.3267 15.1693 12.1667 15.0147C11.6421 14.5123 11.185 13.944 10.8067 13.324L10.728 13.1973C10.6715 13.1122 10.6258 13.0204 10.592 12.924C10.5413 12.728 10.6733 12.5707 10.6733 12.5707C10.6733 12.5707 10.9973 12.216 11.148 12.024C11.2947 11.8373 11.4187 11.656 11.4987 11.5267C11.656 11.2733 11.7053 11.0133 11.6227 10.812C11.2493 9.9 10.8627 8.992 10.4653 8.09067C10.3867 7.912 10.1533 7.784 9.94132 7.75867C9.86932 7.75067 9.79732 7.74267 9.72532 7.73733C9.54626 7.72844 9.36683 7.73022 9.18799 7.74267L9.45599 7.732L9.45732 7.73333Z" fill="#0060FE"/>
</svg>
