<svg width="28" height="24" viewBox="0 0 28 24" fill="none" xmlns="http://www.w3.org/2000/svg">
<path fill-rule="evenodd" clip-rule="evenodd" d="M23.2341 22.1203V22.1176L23.2581 22.0603L27.2568 1.9003V1.8363C27.2568 1.33364 27.0701 0.894971 26.6675 0.632304C26.3141 0.401637 25.9075 0.385637 25.6221 0.406971C25.3565 0.430992 25.0945 0.484659 24.8408 0.566971C24.7326 0.601844 24.6259 0.640986 24.5208 0.684304L24.5035 0.690971L2.21013 9.43631L2.20346 9.43897C2.13569 9.46212 2.06935 9.48927 2.0048 9.5203C1.84625 9.59154 1.69413 9.67629 1.55013 9.77364C1.26346 9.97097 0.71813 10.435 0.81013 11.171C0.88613 11.7816 1.30613 12.1683 1.59013 12.3696C1.75776 12.4871 1.93799 12.5855 2.12746 12.663L2.17013 12.6816L2.18346 12.6856L2.1928 12.6896L6.09413 14.003C6.0808 14.247 6.1048 14.4963 6.17013 14.743L8.12346 22.155C8.23017 22.559 8.46076 22.9194 8.78283 23.1857C9.1049 23.452 9.50228 23.6107 9.91916 23.6395C10.336 23.6683 10.7515 23.5658 11.1072 23.3465C11.4628 23.1271 11.7408 22.8018 11.9021 22.4163L14.9528 19.155L20.1915 23.171L20.2661 23.203C20.7421 23.411 21.1861 23.4763 21.5928 23.4216C21.9995 23.3656 22.3221 23.195 22.5648 23.0016C22.8455 22.7741 23.0692 22.4842 23.2181 22.155L23.2288 22.1323L23.2328 22.1243L23.2341 22.1203ZM8.10346 14.2336C8.08183 14.1514 8.08697 14.0644 8.11814 13.9853C8.14931 13.9062 8.20489 13.839 8.2768 13.7936L21.5048 5.39364C21.5048 5.39364 22.2835 4.9203 22.2555 5.39364C22.2555 5.39364 22.3941 5.4763 21.9768 5.8643C21.5821 6.23364 12.5488 14.955 11.6341 15.8376C11.5833 15.887 11.5476 15.95 11.5315 16.019L10.0568 21.6456L8.10346 14.2323V14.2336Z" fill="#0060FE"/>
</svg>
