<svg width="41" height="14" viewBox="0 0 41 14" fill="none" xmlns="http://www.w3.org/2000/svg">
<path d="M17.9554 13.4043H14.6611L16.7216 0.636818H20.0157L17.9554 13.4043Z" fill="#00579F"/>
<path d="M29.8976 0.94895C29.2478 0.690618 28.2172 0.405388 26.9429 0.405388C23.6896 0.405388 21.3988 2.14385 21.3847 4.62932C21.3577 6.4631 23.0249 7.48162 24.2719 8.09306C25.5464 8.71786 25.9796 9.12566 25.9796 9.68259C25.9667 10.5379 24.9498 10.9322 24.0013 10.9322C22.6861 10.9322 21.9814 10.7289 20.9104 10.253L20.4766 10.0491L20.0156 12.9151C20.7883 13.2678 22.2118 13.5809 23.6896 13.5946C27.1462 13.5946 29.3966 11.883 29.4233 9.23434C29.4364 7.78093 28.556 6.66727 26.6581 5.75724C25.5059 5.17306 24.8002 4.77916 24.8002 4.18144C24.8137 3.63806 25.397 3.0815 26.6977 3.0815C27.7686 3.05424 28.5555 3.31221 29.1516 3.57036L29.4496 3.70593L29.8976 0.94895Z" fill="#00579F"/>
<path d="M34.276 8.88123C34.5473 8.14776 35.5912 5.30899 35.5912 5.30899C35.5775 5.33625 35.862 4.56198 36.0246 4.08666L36.2549 5.18678C36.2549 5.18678 36.8787 8.24289 37.0142 8.88123C36.4993 8.88123 34.9267 8.88123 34.276 8.88123ZM38.3424 0.636818H35.7942C35.0085 0.636818 34.4115 0.867529 34.0724 1.69614L29.1792 13.4041H32.6358C32.6358 13.4041 33.2049 11.8283 33.3272 11.4889C33.7064 11.4889 37.0689 11.4889 37.5568 11.4889C37.6513 11.9372 37.9498 13.4041 37.9498 13.4041H41L38.3424 0.636818Z" fill="#00579F"/>
<path d="M11.9097 0.636818L8.68347 9.34301L8.33093 7.5773C7.73448 5.53989 5.86387 3.32628 3.77637 2.22562L6.73144 13.3908H10.2151L15.3931 0.636818H11.9097Z" fill="#00579F"/>
<path d="M5.6879 0.636818H0.387719L0.333496 0.894788C4.46797 1.95429 7.20615 4.50818 8.33114 7.57784L7.17895 1.71004C6.98925 0.894608 6.40631 0.663716 5.6879 0.636818Z" fill="#FAA61A"/>
</svg>
